<?xml version="1.0" encoding="UTF-8"?>
<svg id="Layer_2" data-name="Layer 2" xmlns="http://www.w3.org/2000/svg" viewBox="0 0 80.04 114.84">
  <defs>
    <style>
      .cls-1 {
        fill: #c6c1af;
      }
    </style>
  </defs>
  <g id="Objects">
    <path class="cls-1" d="M8.68,85.26c7.91,7.23,19.47,8.77,29.87,8.58v19.55c0,1.93,3,1.93,3,0v-19.55c10.3,.18,20.78-1.46,29.11-7.94,7.1-5.53,9.85-14.56,9.32-23.27-1.57-26.09-28.21-39.65-38.11-61.85-.38-.86-1.19-.93-1.82-.59-.64-.34-1.44-.27-1.82,.59C28.16,23.35,2.48,36.33,.12,62.63c-.77,8.51,2.25,16.86,8.56,22.63ZM3.86,57.58C7.83,35.76,30.54,23.14,40.05,3.92c9.57,19.5,31.34,31.74,36.19,53.66,1.9,8.6,.62,17.63-5.53,24.22-7.25,7.77-18.95,9.24-29.16,9.05v-31.64c0-1.93-3-1.93-3,0v31.64c-10.1,.18-20.77-1.33-28.47-8.37-7.05-6.44-7.83-16.05-6.22-24.9Z"/>
  </g>
</svg>