<?xml version="1.0" encoding="UTF-8"?>
<svg id="Layer_2" data-name="Layer 2" xmlns="http://www.w3.org/2000/svg" viewBox="0 0 98.77 113.73">
  <defs>
    <style>
      .cls-1 {
        fill: #c6c1af;
      }
    </style>
  </defs>
  <g id="Objects">
    <path class="cls-1" d="M98.16,61.57c-.17-.55-.62-1-1.37-.99-18.06,.2-43.78,8.31-36.7,31.01-3.07,2.59-6.13,5.18-9.2,7.77v-27.24c8.01-3.27,14.81-8.21,18.23-16.4,3.16-7.54,1.82-16.35-.52-23.91-3.49-11.29-10.03-22.2-17.56-31.3-.5-.61-1.15-.61-1.65-.3-.51-.3-1.15-.3-1.65,.3-7.4,8.93-13.51,19.44-17.27,30.4-2.63,7.67-3.72,16.16-1.12,23.98,2.86,8.62,10.48,13.94,18.54,17.23v27.25c-3.07-2.59-6.13-5.18-9.2-7.77,7.08-22.7-18.64-30.8-36.7-31.01-.75,0-1.21,.44-1.37,.99-.42,.33-.7,.85-.58,1.51,1.41,7.86,4.3,15.82,8.56,22.58,6.62,10.51,17.14,13.85,28.22,8.25,3.69,3.12,7.39,6.24,11.08,9.35v9.02c0,1.93,3,1.93,3,0v-9.02c3.69-3.12,7.39-6.24,11.08-9.35,11.24,5.69,21.38,2.12,28.22-8.25,4.36-6.61,7.16-14.8,8.56-22.58,.12-.66-.16-1.18-.58-1.51ZM3.18,63.61c5.94,.19,11.94,1.24,17.6,3,4.87,1.51,9.58,3.89,13,7.75,3.77,4.27,3.79,9.92,2.41,15.11-1.67-1.41-3.34-2.82-5.01-4.23-1.47-1.24-3.6,.87-2.12,2.12,1.75,1.48,3.5,2.96,5.25,4.43-18.08,8.19-28.04-12.84-31.13-28.18Zm28.32-12.07c-1.89-7.45,.2-15.51,2.82-22.51,3.45-9.2,8.84-18.18,15.07-25.83,6.06,7.45,11.14,16.08,14.73,24.95,2.86,7.06,4.72,14.91,3.35,22.52-1.62,8.96-8.63,14.75-16.58,18.19v-10.78c0-1.93-3-1.93-3,0v10.79c-7.8-3.37-14.22-8.77-16.39-17.33Zm32.98,40.25c1.75-1.48,3.5-2.96,5.25-4.43,1.48-1.25-.65-3.36-2.12-2.12-1.67,1.41-3.33,2.81-5,4.22-2.85-11.33,3.77-18.85,14.66-22.61,5.81-2,12.17-3.06,18.34-3.24-3.09,15.34-13.04,36.37-31.13,28.18Z"/>
  </g>
</svg>